<?xml version="1.0" encoding="UTF-8"?>
<svg version="1.1" xmlns="http://www.w3.org/2000/svg" width="646" height="153">
<path d="M0 0 C213.18 0 426.36 0 646 0 C646 50.49 646 100.98 646 153 C432.82 153 219.64 153 0 153 C0 102.51 0 52.02 0 0 Z " fill="#FDFDFD" transform="translate(0,0)"/>
<path d="M0 0 C12.54 0 25.08 0 38 0 C38 0.66 38 1.32 38 2 C38.639375 2.103125 39.27875 2.20625 39.9375 2.3125 C44.73005496 3.38837969 49.59573154 4.79786577 54 7 C54 7.66 54 8.32 54 9 C54.71542969 9.11601563 55.43085937 9.23203125 56.16796875 9.3515625 C59.14092698 10.03226742 61.56374202 11.06227911 64.3125 12.375 C68.81645737 14.48050853 73.32119466 16.32269243 78 18 C78 18.66 78 19.32 78 20 C78.680625 19.9175 79.36125 19.835 80.0625 19.75 C83.35159868 20.02992329 85.25045655 21.19247415 88.01953125 22.91015625 C91.47661282 24.81257392 95.23259769 25.87234217 99 27 C99 27.66 99 28.32 99 29 C99.56203125 29.13277344 100.1240625 29.26554687 100.703125 29.40234375 C103.09366153 30.02437111 105.41035775 30.77115041 107.75 31.5625 C108.94882812 31.96662109 108.94882812 31.96662109 110.171875 32.37890625 C110.77515625 32.58386719 111.3784375 32.78882813 112 33 C112 33.66 112 34.32 112 35 C112.78375 35.0825 113.5675 35.165 114.375 35.25 C119.76670158 36.36552447 125.52536123 38.06574153 129.9140625 41.49609375 C132.55602128 43.40087677 135.15035016 44.21043646 138.25 45.1875 C139.32765625 45.53167969 140.4053125 45.87585938 141.515625 46.23046875 C142.33546875 46.48441406 143.1553125 46.73835938 144 47 C144 47.66 144 48.32 144 49 C147.14969501 50.84586777 149.48884674 51.27170838 153.125 51.25 C154.42824219 51.25773437 154.42824219 51.25773437 155.7578125 51.265625 C158.20203887 51.2106341 158.20203887 51.2106341 160 49 C161.32 49 162.64 49 164 49 C164 48.34 164 47.68 164 47 C164.60328125 46.80664062 165.2065625 46.61328125 165.828125 46.4140625 C166.62734375 46.15367188 167.4265625 45.89328125 168.25 45.625 C169.03890625 45.36976562 169.8278125 45.11453125 170.640625 44.8515625 C173.00248856 44.05887299 173.00248856 44.05887299 175.109375 42.8984375 C177 42 177 42 180 42 C180 41.34 180 40.68 180 40 C183.48554381 36.3692252 187.2190722 36.39841065 192 36 C192 35.34 192 34.68 192 34 C192.53367188 33.84144531 193.06734375 33.68289062 193.6171875 33.51953125 C198.816449 31.89138881 203.54463145 29.82648285 208.3828125 27.33203125 C214.72248413 24.10542226 221.16882133 21.03089096 228 19 C228 18.34 228 17.68 228 17 C229.91603157 16.35228492 231.83285113 15.70690052 233.75 15.0625 C234.81734375 14.70285156 235.8846875 14.34320313 236.984375 13.97265625 C239.31735725 13.22017881 241.61374995 12.55022756 244 12 C244 11.34 244 10.68 244 10 C247.3 9.67 250.6 9.34 254 9 C254 8.34 254 7.68 254 7 C255.91411557 6.01585567 257.8313967 5.03786651 259.75 4.0625 C260.81734375 3.51722656 261.8846875 2.97195312 262.984375 2.41015625 C267.9333126 0.09595097 272.24448452 -0.1708198 277.66796875 -0.203125 C278.42104813 -0.20882507 279.1741275 -0.21452515 279.95002747 -0.22039795 C281.54959722 -0.22983804 283.14918634 -0.236378 284.7487793 -0.24023438 C287.13432802 -0.24978708 289.51895593 -0.28075168 291.90429688 -0.3125 C301.30179178 -0.37598629 310.11567092 0.41885456 319.32617188 2.29760742 C323.48879353 3.09345155 327.5745527 3.47246505 331.80078125 3.69140625 C336.6541457 4.37242897 338.45912298 6.45912298 342 10 C342 17.92 342 25.84 342 34 C390.84 34 439.68 34 490 34 C490 28.06 490 22.12 490 16 C491 12 491 12 492.6015625 10.83984375 C493.60316406 10.39318359 493.60316406 10.39318359 494.625 9.9375 C495.35589844 9.6075 496.08679688 9.2775 496.83984375 8.9375 C497.55269531 8.628125 498.26554688 8.31875 499 8 C500.051875 7.484375 501.10375 6.96875 502.1875 6.4375 C519.16484665 -0.4583759 540.86288825 -1.2185872 559 0 C560.7082941 1.7082941 560.11971926 3.86004377 560.12442017 6.13786316 C560.12082489 6.87297623 560.11722961 7.60808929 560.11352539 8.36547852 C560.11367142 9.13615662 560.11381744 9.90683472 560.1139679 10.7008667 C560.1132686 13.26024139 560.10547545 15.8195442 560.09765625 18.37890625 C560.09579213 20.14867615 560.0943682 21.91844656 560.09336853 23.68821716 C560.08954288 28.35551366 560.0797122 33.02277923 560.06866455 37.69006348 C560.05845144 42.44897035 560.05387113 47.20788221 560.04882812 51.96679688 C560.03808997 61.31121153 560.02101299 70.6556032 560 80 C547.99865218 80.138768 536.17256423 80.21583891 524.25 78.6875 C523.19296875 78.56955078 522.1359375 78.45160156 521.046875 78.33007812 C512.15324698 77.256899 503.89418998 75.36257867 496 71 C496 70.34 496 69.68 496 69 C494.02 69 492.04 69 490 69 C488 65 488 65 488 46 C439.16 46 390.32 46 340 46 C340 57.22 340 68.44 340 80 C294.32196669 80.57097542 294.32196669 80.57097542 280 70 C278.69195893 66.07587679 278.85722916 62.33582731 278.8671875 58.24609375 C278.86575241 56.96110741 278.86575241 56.96110741 278.86428833 55.65016174 C278.86360814 53.84042284 278.86545124 52.03068148 278.86962891 50.22094727 C278.87498597 47.44476878 278.86967513 44.66875161 278.86328125 41.89257812 C278.86394193 40.13541631 278.86522289 38.37825459 278.8671875 36.62109375 C278.86516327 35.78775009 278.86313904 34.95440643 278.86105347 34.09580994 C278.88503635 28.22992731 278.88503635 28.22992731 280 26 C275.36748622 27.13449317 271.97161799 28.56913537 267.86328125 31.07421875 C265.81536998 32.09173441 264.06411024 32.44331706 261.8125 32.8125 C256.62012244 33.80194125 252.77353125 36.39197254 248.3125 39.12890625 C241.60737581 42.91635258 234.30003326 45.38676215 227.10546875 48.0859375 C222.3112202 49.92704677 218.14465682 52.03709325 213.84765625 54.84765625 C211.04781486 56.59385754 208.05718479 57.79244146 205 59 C197.6599639 61.95951965 190.5335763 65.13940557 183.49609375 68.765625 C178.83875865 71.06878289 174.75984646 71.1758596 169.66796875 71.203125 C168.83977127 71.20882507 168.01157379 71.21452515 167.15827942 71.22039795 C165.39890823 71.22985 163.63951932 71.23638275 161.88012695 71.24023438 C159.23550566 71.24982589 156.59170069 71.28079749 153.94726562 71.3125 C140.76996675 71.39601175 129.13235058 69.67827331 116.625 65.3125 C115.97273437 65.08755859 115.32046875 64.86261719 114.6484375 64.63085938 C113.09642896 64.09450348 111.5477787 63.54844259 110 63 C110 62.34 110 61.68 110 61 C109.47921875 60.8865625 108.9584375 60.773125 108.421875 60.65625 C98.51298194 57.97125962 89.54237591 53.34875413 80.73730469 48.19750977 C75.37344589 45.09914408 69.9388904 42.79928247 64 41 C64 40.34 64 39.68 64 39 C63.16210938 39.07863281 62.32421875 39.15726563 61.4609375 39.23828125 C57.18081283 38.94359998 54.24785538 37.29956525 50.625 35.1875 C49.29738742 34.44855346 47.96797458 33.71283141 46.63671875 32.98046875 C46.00685059 32.63290527 45.37698242 32.2853418 44.72802734 31.92724609 C39.45624808 29.09845016 35.0126375 27.86507405 29 28 C28.99589111 29.22630127 28.99178223 30.45260254 28.98754883 31.71606445 C28.96579219 36.26190337 28.91153903 40.80687241 28.84741211 45.35229492 C28.82420171 47.32030913 28.80982927 49.28844809 28.80444336 51.2565918 C28.79517583 54.08461521 28.75423542 56.91066833 28.70703125 59.73828125 C28.71293022 61.06029289 28.71293022 61.06029289 28.71894836 62.40901184 C28.66379809 64.71300958 28.56989065 66.76683605 28 69 C25.65917969 70.98168945 25.65917969 70.98168945 23 72 C21.92621094 72.51304688 20.85242188 73.02609375 19.74609375 73.5546875 C15.63141626 75.26199485 11.41055098 76.20768967 7.0625 77.125 C5.92264648 77.37830078 5.92264648 77.37830078 4.75976562 77.63671875 C-8.32449483 80.4748077 -20.21730511 80 -34 80 C-34 56.9 -34 33.8 -34 10 C-32.68 10 -31.36 10 -30 10 C-29.67 9.01 -29.34 8.02 -29 7 C-20.30148754 2.65074377 -9.61003121 1.80779938 0 2 C0 1.34 0 0.68 0 0 Z " fill="#FD8B04" transform="translate(58,28)"/>
<path d="M0 0 C1.7082941 1.7082941 1.11971926 3.86004377 1.12442017 6.13786316 C1.12082489 6.87297623 1.11722961 7.60808929 1.11352539 8.36547852 C1.11367142 9.13615662 1.11381744 9.90683472 1.1139679 10.7008667 C1.1132686 13.26024139 1.10547545 15.8195442 1.09765625 18.37890625 C1.09579213 20.14867615 1.0943682 21.91844656 1.09336853 23.68821716 C1.08954288 28.35551366 1.0797122 33.02277923 1.06866455 37.69006348 C1.05845144 42.44897035 1.05387113 47.20788221 1.04882812 51.96679688 C1.03808997 61.31121153 1.02101299 70.6556032 1 80 C-11.00134782 80.138768 -22.82743577 80.21583891 -34.75 78.6875 C-35.80703125 78.56955078 -36.8640625 78.45160156 -37.953125 78.33007812 C-46.84675302 77.256899 -55.10581002 75.36257867 -63 71 C-63 70.34 -63 69.68 -63 69 C-64.98 69 -66.96 69 -69 69 C-71 65 -71 65 -71 46 C-119.18 46 -167.36 46 -217 46 C-217 42.04 -217 38.08 -217 34 C-168.16 34 -119.32 34 -69 34 C-69 28.06 -69 22.12 -69 16 C-68 12 -68 12 -66.3984375 10.83984375 C-65.73070312 10.54207031 -65.06296875 10.24429688 -64.375 9.9375 C-63.27865234 9.4425 -63.27865234 9.4425 -62.16015625 8.9375 C-61.44730469 8.628125 -60.73445312 8.31875 -60 8 C-58.948125 7.484375 -57.89625 6.96875 -56.8125 6.4375 C-39.83515335 -0.4583759 -18.13711175 -1.2185872 0 0 Z " fill="#11659F" transform="translate(617,28)"/>
<path d="M0 0 C44.22 0 88.44 0 134 0 C131.8614515 2.1385485 130.86724686 2.42655063 128 3 C131.7559214 6.42931954 136.23466745 7.56429083 141 9 C141 9.33 141 9.66 141 10 C94.47 10 47.94 10 0 10 C0 6.7 0 3.4 0 0 Z " fill="#0A619D" transform="translate(401,63)"/>
<path d="M0 0 C47.85 0 95.7 0 145 0 C145 0.33 145 0.66 145 1 C97.48 1 49.96 1 1 1 C1 4.3 1 7.6 1 11 C1.75667686 10.99907821 2.51335371 10.99815641 3.29296017 10.99720669 C21.67778678 10.97515266 40.06261077 10.95858904 58.44744778 10.94818783 C67.33809826 10.9430246 76.22873994 10.9359814 85.11938477 10.92456055 C92.86561227 10.91461452 100.61183339 10.90814677 108.3580671 10.90591151 C112.46220919 10.90460426 116.56633302 10.90151753 120.67046928 10.89426994 C124.5289464 10.88751101 128.38739765 10.88538278 132.24588013 10.88689232 C133.6661245 10.88661593 135.08636969 10.88461005 136.50660896 10.88079453 C138.4374187 10.87585933 140.36824215 10.87760197 142.29905701 10.87974548 C143.38216376 10.87882369 144.46527052 10.8779019 145.58119869 10.87695217 C148 11 148 11 149 12 C149.15740605 13.70563778 149.25093392 15.41727244 149.31640625 17.12890625 C149.37924805 18.68061523 149.37924805 18.68061523 149.44335938 20.26367188 C149.48267578 21.35228516 149.52199219 22.44089844 149.5625 23.5625 C149.60568359 24.65498047 149.64886719 25.74746094 149.69335938 26.87304688 C149.79982068 29.58189564 149.90183516 32.29083992 150 35 C149.34 35 148.68 35 148 35 C146 31 146 31 146 12 C97.82 12 49.64 12 0 12 C0 8.04 0 4.08 0 0 Z " fill="#4883AD" transform="translate(400,62)"/>
<path d="M0 0 C-3.26545761 1.88391785 -6.28111761 2.49287967 -10 3 C-10.7505648 10.80357351 -11.1493438 18.51728856 -11.1328125 26.35546875 C-11.13376923 27.38255447 -11.13472595 28.4096402 -11.13571167 29.46784973 C-11.13638631 31.61813418 -11.13458257 33.76842075 -11.13037109 35.91870117 C-11.12499591 39.18998818 -11.13034914 42.46113896 -11.13671875 45.73242188 C-11.13605816 47.8359378 -11.13477741 49.93945364 -11.1328125 52.04296875 C-11.13483673 53.00881393 -11.13686096 53.97465912 -11.13894653 54.96977234 C-11.11926321 60.72450401 -10.73572791 66.29135049 -10 72 C-10.66 72 -11.32 72 -12 72 C-12 72.66 -12 73.32 -12 74 C-10.22496094 73.89171875 -10.22496094 73.89171875 -8.4140625 73.78125 C-0.26514802 73.29789823 7.83282327 72.86827134 16 73 C16 73.33 16 73.66 16 74 C5.4105358 75.32368303 -5.32812627 75 -16 75 C-16 51.9 -16 28.8 -16 5 C-14.68 5 -13.36 5 -12 5 C-11.67 4.01 -11.34 3.02 -11 2 C-9.2578125 1.015625 -9.2578125 1.015625 -7.125 0.25 C-6.42632812 -0.01296875 -5.72765625 -0.2759375 -5.0078125 -0.546875 C-3 -1 -3 -1 0 0 Z " fill="#F79720" transform="translate(40,33)"/>
<path d="M0 0 C0.85916016 -0.01160156 1.71832031 -0.02320312 2.60351562 -0.03515625 C8.13552443 -0.00979945 12.01009254 0.84778152 16.9375 3.375 C16.9375 4.695 16.9375 6.015 16.9375 7.375 C10.76696995 9.17891366 5.22488559 9.68268263 -1.1875 9.625 C-2.48880859 9.63660156 -2.48880859 9.63660156 -3.81640625 9.6484375 C-9.44773813 9.63129494 -13.95981107 8.92634447 -19.0625 6.375 C-18.7325 5.385 -18.4025 4.395 -18.0625 3.375 C-11.96872285 0.42170186 -6.70287802 -0.09092073 0 0 Z " fill="#4A4A4A" transform="translate(318.0625,117.625)"/>
<path d="M0 0 C4.06243957 -0.05819473 8.12477146 -0.09366215 12.1875 -0.125 C13.33798828 -0.14175781 14.48847656 -0.15851563 15.67382812 -0.17578125 C16.78564453 -0.18222656 17.89746094 -0.18867187 19.04296875 -0.1953125 C20.06414795 -0.20578613 21.08532715 -0.21625977 22.13745117 -0.22705078 C25.12612167 0.01000368 27.29423369 0.74382898 30 2 C30.125 4.375 30.125 4.375 30 7 C28 9 28 9 25.20263672 9.22705078 C24.04006348 9.21657715 22.87749023 9.20610352 21.6796875 9.1953125 C19.79443359 9.18564453 19.79443359 9.18564453 17.87109375 9.17578125 C16.55238281 9.15902344 15.23367188 9.14226562 13.875 9.125 C12.53516279 9.11496983 11.19531848 9.10584404 9.85546875 9.09765625 C6.57013427 9.07402075 3.28515535 9.04107234 0 9 C0 6.03 0 3.06 0 0 Z " fill="#848484" transform="translate(581,118)"/>
<path d="M0 0 C6.03847341 -0.20128245 9.1986562 -0.09805561 14.08496094 3.56152344 C16.77313487 6.98445577 16.50274395 10.10125391 16.390625 14.265625 C16.38496521 15.05902283 16.37930542 15.85242065 16.37347412 16.66986084 C16.35113147 19.19719473 16.30094176 21.72309665 16.25 24.25 C16.22993214 25.96612532 16.21168187 27.68227292 16.1953125 29.3984375 C16.15127395 33.5995078 16.08226326 37.79951135 16 42 C15.34 42 14.68 42 14 42 C14 53.22 14 64.44 14 76 C13.01 76 12.02 76 11 76 C10.97506209 71.05615597 10.95702862 66.11234952 10.94506836 61.16845703 C10.94007604 59.49071616 10.93327985 57.81297955 10.92456055 56.13525391 C10.88011286 47.35552877 10.87164554 38.72475655 12 30 C12.66 30 13.32 30 14 30 C13.34 22.08 12.68 14.16 12 6 C8.04 4.35 4.08 2.7 0 1 C0 0.67 0 0.34 0 0 Z " fill="#FB9B34" transform="translate(384,32)"/>
<path d="M0 0 C1.21236328 0.01353516 1.21236328 0.01353516 2.44921875 0.02734375 C3.37154297 0.04474609 3.37154297 0.04474609 4.3125 0.0625 C4.6425 0.7225 4.9725 1.3825 5.3125 2.0625 C10.32592137 4.31853962 14.93699542 4.27752018 20.3125 4.0625 C20.3125 3.4025 20.3125 2.7425 20.3125 2.0625 C23.46756142 1.12630187 26.27836502 0.9567877 29.5625 1 C30.45453125 1.00902344 31.3465625 1.01804687 32.265625 1.02734375 C32.94109375 1.03894531 33.6165625 1.05054687 34.3125 1.0625 C34.3125 3.7025 34.3125 6.3425 34.3125 9.0625 C31.6725 9.0625 29.0325 9.0625 26.3125 9.0625 C26.3125 7.7425 26.3125 6.4225 26.3125 5.0625 C25.6834375 5.29066406 25.054375 5.51882812 24.40625 5.75390625 C15.82413602 8.63615236 9.84842159 7.7299755 1.3125 5.0625 C0.9825 6.3825 0.6525 7.7025 0.3125 9.0625 C-2.3275 9.0625 -4.9675 9.0625 -7.6875 9.0625 C-7.6875 6.4225 -7.6875 3.7825 -7.6875 1.0625 C-4.80538698 0.10179566 -2.98899956 -0.04331883 0 0 Z " fill="#333333" transform="translate(31.6875,117.9375)"/>
<path d="M0 0 C7.23172298 -0.32061826 12.51115134 -0.24442433 19 3 C20.98821313 3.39764263 22.98732362 3.75455166 25 4 C25 3.01 25 2.02 25 1 C27.95664519 -0.4783226 30.74229737 -0.06032783 34 0 C34 2.97 34 5.94 34 9 C27.85719148 9.29723267 23.13851837 8.6625248 17.30859375 6.734375 C14.57014296 5.86326037 11.84630762 5.37451416 9 5 C9 6.32 9 7.64 9 9 C6.03 9 3.06 9 0 9 C0 6.03 0 3.06 0 0 Z " fill="#959595" transform="translate(166,118)"/>
<path d="M0 0 C3.37521705 -0.05414787 6.7495577 -0.0937459 10.125 -0.125 C11.07632812 -0.14175781 12.02765625 -0.15851563 13.0078125 -0.17578125 C18.08583255 -0.21104528 22.24487525 -0.03333617 27 2 C26.67 2.99 26.34 3.98 26 5 C25.01 5.33 24.02 5.66 23 6 C23.33 6.66 23.66 7.32 24 8 C19.71 7.67 15.42 7.34 11 7 C11 7.66 11 8.32 11 9 C7.37 9 3.74 9 0 9 C0 6.03 0 3.06 0 0 Z " fill="#848484" transform="translate(374,118)"/>
<path d="M0 0 C2.31 0 4.62 0 7 0 C7 15.51 7 31.02 7 47 C6.01 46.67 5.02 46.34 4 46 C2.69195893 42.07587679 2.85722916 38.33582731 2.8671875 34.24609375 C2.86623077 33.38943619 2.86527405 32.53277863 2.86428833 31.65016174 C2.86360814 29.84042284 2.86545124 28.03068148 2.86962891 26.22094727 C2.87498597 23.44476878 2.86967513 20.66875161 2.86328125 17.89257812 C2.86394193 16.13541631 2.86522289 14.37825459 2.8671875 12.62109375 C2.86516327 11.78775009 2.86313904 10.95440643 2.86105347 10.09580994 C2.88503635 4.22992731 2.88503635 4.22992731 4 2 C2.68 2 1.36 2 0 2 C0 1.34 0 0.68 0 0 Z " fill="#F9A548" transform="translate(334,52)"/>
<path d="M0 0 C1.23556641 0.01740234 1.23556641 0.01740234 2.49609375 0.03515625 C3.32238281 0.04417969 4.14867187 0.05320312 5 0.0625 C5.63808594 0.07410156 6.27617188 0.08570312 6.93359375 0.09765625 C6.93359375 2.40765625 6.93359375 4.71765625 6.93359375 7.09765625 C12.37859375 6.60265625 12.37859375 6.60265625 17.93359375 6.09765625 C18.26359375 4.44765625 18.59359375 2.79765625 18.93359375 1.09765625 C21.91572288 -0.39340832 24.64969033 -0.02175842 27.93359375 0.09765625 C28.93359375 1.09765625 28.93359375 1.09765625 28.99609375 4.16015625 C28.97546875 5.12953125 28.95484375 6.09890625 28.93359375 7.09765625 C23.9082184 8.73579808 19.36462929 9.45108999 14.05859375 9.41015625 C13.36185547 9.40886719 12.66511719 9.40757813 11.94726562 9.40625 C6.37295063 9.30254181 2.02564699 8.27996478 -3.06640625 6.09765625 C-3.10912725 4.4315372 -3.10704457 2.7638274 -3.06640625 1.09765625 C-2.06640625 0.09765625 -2.06640625 0.09765625 0 0 Z " fill="#3C3C3C" transform="translate(515.06640625,117.90234375)"/>
<path d="M0 0 C2.64 0 5.28 0 8 0 C8.09765625 6.15234375 8.09765625 6.15234375 8 8 C7 9 7 9 3.4375 9.0625 C2.303125 9.041875 1.16875 9.02125 0 9 C-0.33 8.01 -0.66 7.02 -1 6 C-5.62 6 -10.24 6 -15 6 C-15 6.99 -15 7.98 -15 9 C-17.33294775 9.04241723 -19.66702567 9.04092937 -22 9 C-23 8 -23 8 -23.0625 4.4375 C-23.041875 3.303125 -23.02125 2.16875 -23 1 C-20.36 1 -17.72 1 -15 1 C-14.67 1.66 -14.34 2.32 -14 3 C-10.95418731 3.46954261 -10.95418731 3.46954261 -7.4375 3.625 C-6.23996094 3.69976562 -5.04242188 3.77453125 -3.80859375 3.8515625 C-2.88175781 3.90054688 -1.95492188 3.94953125 -1 4 C-0.67 2.68 -0.34 1.36 0 0 Z " fill="#555555" transform="translate(465,118)"/>
<path d="M0 0 C1.32 0 2.64 0 4 0 C4 11.55 4 23.1 4 35 C1.35177988 36.32411006 -0.48938194 36.01892401 -3.4453125 35.87890625 C-4.52167969 35.83056641 -5.59804688 35.78222656 -6.70703125 35.73242188 C-7.83496094 35.67634766 -8.96289062 35.62027344 -10.125 35.5625 C-11.26066406 35.51029297 -12.39632813 35.45808594 -13.56640625 35.40429688 C-16.37786631 35.27435544 -19.18899465 35.13938086 -22 35 C-22 34.67 -22 34.34 -22 34 C-14.74 34 -7.48 34 0 34 C0 22.78 0 11.56 0 0 Z " fill="#FBDAB5" transform="translate(398,74)"/>
<path d="M0 0 C7.59 0 15.18 0 23 0 C23 0.66 23 1.32 23 2 C18.38 2 13.76 2 9 2 C9 2.66 9 3.32 9 4 C12.63 4 16.26 4 20 4 C20 4.66 20 5.32 20 6 C20.66 6.33 21.32 6.66 22 7 C22 7.66 22 8.32 22 9 C18.52085059 9.02887814 15.04173169 9.04675687 11.5625 9.0625 C10.07266602 9.07506836 10.07266602 9.07506836 8.55273438 9.08789062 C7.60849609 9.09111328 6.66425781 9.09433594 5.69140625 9.09765625 C4.81685791 9.10289307 3.94230957 9.10812988 3.04125977 9.11352539 C1 9 1 9 0 8 C0 5.36 0 2.72 0 0 Z " fill="#737373" transform="translate(106,118)"/>
<path d="M0 0 C0 14.52 0 29.04 0 44 C-1.32 43.34 -2.64 42.68 -4 42 C-4 28.8 -4 15.6 -4 2 C-6.31 2.66 -8.62 3.32 -11 4 C-8.66590981 -0.66818038 -4.90490007 0 0 0 Z " fill="#F8DAB9" transform="translate(338,54)"/>
<path d="M0 0 C1.32 0.33 2.64 0.66 4 1 C3.67 1.33 3.34 1.66 3 2 C2.87608318 4.11605096 2.82200094 6.23621283 2.79467773 8.35571289 C2.78477814 9.01910172 2.77487854 9.68249054 2.76467896 10.36598206 C2.73298263 12.56816995 2.70827466 14.77037945 2.68359375 16.97265625 C2.66303122 18.49580968 2.64203495 20.01895731 2.62062073 21.542099 C2.56532753 25.55831214 2.51595037 29.57457738 2.46777344 33.59088135 C2.41761118 37.68628599 2.36189764 41.78161461 2.30664062 45.87695312 C2.19897046 53.91790455 2.09754533 61.95891941 2 70 C1.34 70 0.68 70 0 70 C0 46.9 0 23.8 0 0 Z " fill="#F7BD6C" transform="translate(24,38)"/>
<path d="M0 0 C1.485 0.99 1.485 0.99 3 2 C3.51171875 4.90625 3.51171875 4.90625 3.6875 8.5 C3.75195312 9.75039063 3.81640625 11.00078125 3.8828125 12.2890625 C4.02725153 16.86296506 4.09487963 21.42469331 4 26 C3.34 26 2.68 26 2 26 C1.67 41.18 1.34 56.36 1 72 C0.34 71.67 -0.32 71.34 -1 71 C-0.88175936 65.92781866 -0.75751147 60.8558336 -0.62768555 55.78393555 C-0.58436438 54.05839035 -0.54268727 52.33280307 -0.50268555 50.60717773 C-0.44491474 48.12731236 -0.38123997 45.64765828 -0.31640625 43.16796875 C-0.29969376 42.39599655 -0.28298126 41.62402435 -0.26576233 40.82865906 C-0.17772105 37.64817067 -0.01254805 35.03764416 1 32 C0.34 31.67 -0.32 31.34 -1 31 C-0.34 31 0.32 31 1 31 C0.83701416 30.46987305 0.67402832 29.93974609 0.50610352 29.39355469 C-0.11707603 26.44630323 -0.11186844 23.71610855 -0.09765625 20.703125 C-0.09443359 19.49785156 -0.09121094 18.29257812 -0.08789062 17.05078125 C-0.07951172 15.79652344 -0.07113281 14.54226562 -0.0625 13.25 C-0.05798828 11.98027344 -0.05347656 10.71054687 -0.04882812 9.40234375 C-0.03704556 6.26818164 -0.02059416 3.13411459 0 0 Z " fill="#FB931D" transform="translate(394,36)"/>
<path d="M0 0 C11.22 0 22.44 0 34 0 C34.4375 9.25 34.4375 9.25 34.56811523 12.14550781 C34.6252771 13.28777832 34.6252771 13.28777832 34.68359375 14.453125 C34.73858032 15.61569824 34.73858032 15.61569824 34.79467773 16.80175781 C34.99603015 18.9574976 35.41729297 20.91801475 36 23 C37.98 23 39.96 23 42 23 C42 23.66 42 24.32 42 25 C42.94875 25.28875 43.8975 25.5775 44.875 25.875 C48 27 48 27 50 29 C49.01 29.33 48.02 29.66 47 30 C47 29.34 47 28.68 47 28 C45.68 28 44.36 28 43 28 C43 27.34 43 26.68 43 26 C41.68 26 40.36 26 39 26 C39 25.34 39 24.68 39 24 C37.68 24 36.36 24 35 24 C32.52295534 21.87372565 31.17700389 20.18213312 30.68554688 16.89990234 C30.60628164 14.47977221 30.65144812 12.10747198 30.75 9.6875 C30.8325 6.820625 30.915 3.95375 31 1 C20.77 1 10.54 1 0 1 C0 0.67 0 0.34 0 0 Z " fill="#E8F0F2" transform="translate(512,74)"/>
<path d="M0 0 C3.27075883 -0.0580476 6.54138524 -0.09361165 9.8125 -0.125 C10.74126953 -0.14175781 11.67003906 -0.15851563 12.62695312 -0.17578125 C13.51962891 -0.18222656 14.41230469 -0.18867187 15.33203125 -0.1953125 C16.15421143 -0.20578613 16.9763916 -0.21625977 17.82348633 -0.22705078 C20 0 20 0 23 2 C22.67 3.65 22.34 5.3 22 7 C19.36 7 16.72 7 14 7 C14.66 6.34 15.32 5.68 16 5 C12.04 5 8.08 5 4 5 C4 5.66 4 6.32 4 7 C2.68 7 1.36 7 0 7 C0 4.69 0 2.38 0 0 Z " fill="#515151" transform="translate(586,119)"/>
<path d="M0 0 C1.4540625 0.0309375 1.4540625 0.0309375 2.9375 0.0625 C2.9375 0.3925 2.9375 0.7225 2.9375 1.0625 C1.2875 1.0625 -0.3625 1.0625 -2.0625 1.0625 C-2.03631592 2.27832764 -2.01013184 3.49415527 -1.9831543 4.74682617 C-1.8925224 9.26600681 -1.83520352 13.78510744 -1.7878418 18.30493164 C-1.76272719 20.25949623 -1.72862869 22.21396717 -1.68530273 24.16821289 C-1.62451566 26.98086668 -1.59626017 29.79227702 -1.57421875 32.60546875 C-1.54841232 33.47648727 -1.5226059 34.3475058 -1.49601746 35.24491882 C-1.49396686 39.69993803 -1.61150887 41.48440126 -4.43945312 45.109375 C-7.1728834 47.14469166 -8.52197038 47.72486435 -11.875 47.875 C-12.66519531 47.92269531 -13.45539063 47.97039062 -14.26953125 48.01953125 C-14.86121094 48.03371094 -15.45289062 48.04789063 -16.0625 48.0625 C-13.67792052 46.47278035 -11.4320876 45.19508407 -8.875 43.9375 C-8.15957031 43.58429688 -7.44414063 43.23109375 -6.70703125 42.8671875 C-5.89298828 42.46886719 -5.89298828 42.46886719 -5.0625 42.0625 C-5.03744385 40.8257251 -5.0123877 39.5889502 -4.98657227 38.31469727 C-4.89267747 33.74313287 -4.79241371 29.17172682 -4.69018555 24.6003418 C-4.64676856 22.61860854 -4.60509863 20.63683622 -4.56518555 18.6550293 C-4.50764617 15.8128683 -4.44390555 12.97090517 -4.37890625 10.12890625 C-4.36219376 9.23724258 -4.34548126 8.34557892 -4.32826233 7.42689514 C-4.14984335 0.08469068 -4.14984335 0.08469068 0 0 Z " fill="#FACDA5" transform="translate(90.0625,54.9375)"/>
<path d="M0 0 C4.29161047 -0.05783842 8.58312145 -0.0935412 12.875 -0.125 C14.09832031 -0.14175781 15.32164062 -0.15851563 16.58203125 -0.17578125 C17.74863281 -0.18222656 18.91523438 -0.18867187 20.1171875 -0.1953125 C21.19597168 -0.20578613 22.27475586 -0.21625977 23.38623047 -0.22705078 C26 0 26 0 28 2 C24.37 2 20.74 2 17 2 C17.020625 2.969375 17.04125 3.93875 17.0625 4.9375 C17 8 17 8 16 9 C13 9.125 13 9.125 10 9 C9 8 9 8 8.9375 4.9375 C8.9684375 3.4834375 8.9684375 3.4834375 9 2 C6.03 2 3.06 2 0 2 C0 1.34 0 0.68 0 0 Z " fill="#6C6C6C" transform="translate(238,118)"/>
<path d="M0 0 C0.89203125 0.00902344 1.7840625 0.01804687 2.703125 0.02734375 C3.37859375 0.03894531 4.0540625 0.05054687 4.75 0.0625 C4.75 2.7025 4.75 5.3425 4.75 8.0625 C2.11 8.0625 -0.53 8.0625 -3.25 8.0625 C-3.25 6.7425 -3.25 5.4225 -3.25 4.0625 C-3.91386719 4.2790625 -4.57773437 4.495625 -5.26171875 4.71875 C-6.14472656 4.9971875 -7.02773438 5.275625 -7.9375 5.5625 C-9.24267578 5.98015625 -9.24267578 5.98015625 -10.57421875 6.40625 C-13.24391677 7.06100805 -15.51396684 7.18081495 -18.25 7.0625 C-17.92 6.0725 -17.59 5.0825 -17.25 4.0625 C-14.61 3.7325 -11.97 3.4025 -9.25 3.0625 C-9.25 2.4025 -9.25 1.7425 -9.25 1.0625 C-6.09493858 0.12630187 -3.28413498 -0.0432123 0 0 Z " fill="#7C7C7C" transform="translate(61.25,118.9375)"/>
<path d="M0 0 C0.85305168 2.90669462 1.07289715 5.31048873 0.87890625 8.328125 C0.83056641 9.12734375 0.78222656 9.9265625 0.73242188 10.75 C0.67634766 11.575 0.62027344 12.4 0.5625 13.25 C0.51029297 14.09046875 0.45808594 14.9309375 0.40429688 15.796875 C0.27504311 17.8649352 0.13825726 19.9325222 0 22 C-1.65 22 -3.3 22 -5 22 C-5 15.4 -5 8.8 -5 2 C-3.35 2 -1.7 2 0 2 C0 1.34 0 0.68 0 0 Z " fill="#DBE5EC" transform="translate(548,40)"/>
<path d="M0 0 C0.99 0.33 1.98 0.66 3 1 C2.98061729 6.78478888 2.92901639 12.56804849 2.84741211 18.35229492 C2.82420171 20.32030913 2.80982927 22.28844809 2.80444336 24.2565918 C2.79517583 27.08461521 2.75423542 29.91066833 2.70703125 32.73828125 C2.7109639 33.61962234 2.71489655 34.50096344 2.71894836 35.40901184 C2.66368032 37.71792959 2.58374777 39.7650936 2 42 C-0.54418945 44.07885742 -0.54418945 44.07885742 -3 45 C-3.33 44.34 -3.66 43.68 -4 43 C-3.01 43 -2.02 43 -1 43 C-0.67 28.81 -0.34 14.62 0 0 Z " fill="#FAA853" transform="translate(84,55)"/>
<path d="M0 0 C1.66869141 -0.02126953 1.66869141 -0.02126953 3.37109375 -0.04296875 C6.52817188 0.18502098 8.71957747 0.84308991 11.5625 2.1875 C10.5725 3.6725 10.5725 3.6725 9.5625 5.1875 C6.66973111 5.43672317 4.01042629 5.51374578 1.125 5.4375 C0.34833984 5.43234375 -0.42832031 5.4271875 -1.22851562 5.421875 C-4.53205327 5.37634821 -7.2860937 5.23796877 -10.4375 4.1875 C-10.4375 3.1975 -10.4375 2.2075 -10.4375 1.1875 C-6.93348928 0.11659208 -3.65295784 0.02111536 0 0 Z " fill="#DDDDDD" transform="translate(317.4375,119.8125)"/>
<path d="M0 0 C2.64 0 5.28 0 8 0 C8 0.33 8 0.66 8 1 C6.35 1 4.7 1 3 1 C2.67 14.2 2.34 27.4 2 41 C1.34 41 0.68 41 0 41 C0 27.47 0 13.94 0 0 Z " fill="#FCE9D9" transform="translate(88,56)"/>
<path d="M0 0 C6.04522585 -0.20150753 9.33221437 -0.20795186 14.08496094 3.72558594 C16.48720528 6.57863391 16.4690022 7.9568964 16.390625 11.640625 C16.37128906 13.24550781 16.37128906 13.24550781 16.3515625 14.8828125 C16.31804687 15.99398437 16.28453125 17.10515625 16.25 18.25 C16.23195313 19.37664063 16.21390625 20.50328125 16.1953125 21.6640625 C16.14820222 24.44356896 16.08243361 27.2213534 16 30 C15.34 30 14.68 30 14 30 C13.34 22.08 12.68 14.16 12 6 C8.04 4.35 4.08 2.7 0 1 C0 0.67 0 0.34 0 0 Z " fill="#F8BE7E" transform="translate(384,32)"/>
<path d="M0 0 C2.64 0 5.28 0 8 0 C8.33 0.66 8.66 1.32 9 2 C11.80980673 2.69227032 11.80980673 2.69227032 15.0625 3.125 C16.16722656 3.29257813 17.27195312 3.46015625 18.41015625 3.6328125 C19.26480469 3.75398438 20.11945313 3.87515625 21 4 C21 4.33 21 4.66 21 5 C16.71 5 12.42 5 8 5 C8 5.99 8 6.98 8 8 C5.66705225 8.04241723 3.33297433 8.04092937 1 8 C0 7 0 7 -0.0625 3.4375 C-0.041875 2.303125 -0.02125 1.16875 0 0 Z " fill="#777777" transform="translate(442,119)"/>
<path d="M0 0 C1.23556641 0.01740234 1.23556641 0.01740234 2.49609375 0.03515625 C3.32238281 0.04417969 4.14867187 0.05320312 5 0.0625 C5.63808594 0.07410156 6.27617188 0.08570312 6.93359375 0.09765625 C7.26359375 2.73765625 7.59359375 5.37765625 7.93359375 8.09765625 C6.28729047 7.95722748 4.64155196 7.81016296 2.99609375 7.66015625 C1.62130859 7.53833984 1.62130859 7.53833984 0.21875 7.4140625 C-2.06640625 7.09765625 -2.06640625 7.09765625 -3.06640625 6.09765625 C-3.19140625 3.59765625 -3.19140625 3.59765625 -3.06640625 1.09765625 C-2.06640625 0.09765625 -2.06640625 0.09765625 0 0 Z " fill="#4D4D4D" transform="translate(515.06640625,117.90234375)"/>
<path d="M0 0 C1.98 0 3.96 0 6 0 C6 0.99 6 1.98 6 3 C6.87011719 2.94779297 6.87011719 2.94779297 7.7578125 2.89453125 C13.009134 2.71255476 16.39511219 3.16622289 21 6 C21 6.33 21 6.66 21 7 C19.33388095 7.042721 17.66617115 7.04063832 16 7 C15.67 6.67 15.34 6.34 15 6 C13.48530552 5.76807135 11.96245438 5.58784762 10.4375 5.4375 C9.61121094 5.35371094 8.78492188 5.26992187 7.93359375 5.18359375 C7.29550781 5.12300781 6.65742188 5.06242187 6 5 C6 5.66 6 6.32 6 7 C4.02 7 2.04 7 0 7 C0 4.69 0 2.38 0 0 Z " fill="#050505" transform="translate(377,119)"/>
<path d="M0 0 C2.97 0 5.94 0 9 0 C4.38503922 4.03809068 -0.92852877 6 -7 6 C-7 6.66 -7 7.32 -7 8 C-7.804375 8.309375 -8.60875 8.61875 -9.4375 8.9375 C-11.89080405 9.76335345 -11.89080405 9.76335345 -13 11 C-21.72727273 11.96969697 -21.72727273 11.96969697 -25.625 9 C-26.07875 8.34 -26.5325 7.68 -27 7 C-25.68 7 -24.36 7 -23 7 C-22.67 7.66 -22.34 8.32 -22 9 C-18.62535976 9.2503577 -18.62535976 9.2503577 -15 9 C-14.525625 8.525625 -14.05125 8.05125 -13.5625 7.5625 C-10.93053236 4.93053236 -7.61497791 5.29630966 -4 5 C-4 4.34 -4 3.68 -4 3 C-3.01 3 -2.02 3 -1 3 C-0.67 2.01 -0.34 1.02 0 0 Z " fill="#F8DCB3" transform="translate(229,69)"/>
<path d="M0 0 C5.61 0 11.22 0 17 0 C17 1.32 17 2.64 17 4 C14.6875 5.125 14.6875 5.125 12 6 C11.01 5.34 10.02 4.68 9 4 C6.72087062 3.54605448 6.72087062 3.54605448 4.3125 3.375 C3.50425781 3.30023438 2.69601562 3.22546875 1.86328125 3.1484375 C1.24839844 3.09945312 0.63351562 3.05046875 0 3 C0 2.01 0 1.02 0 0 Z " fill="#6A6A6A" transform="translate(383,119)"/>
<path d="M0 0 C0.99 0 1.98 0 3 0 C3.33 7.59 3.66 15.18 4 23 C3.34 23 2.68 23 2 23 C0.27793812 20.00873681 -0.24179923 17.89314287 -0.1953125 14.453125 C-0.18886719 13.60878906 -0.18242188 12.76445313 -0.17578125 11.89453125 C-0.15902344 11.02183594 -0.14226563 10.14914063 -0.125 9.25 C-0.11597656 8.36183594 -0.10695313 7.47367187 -0.09765625 6.55859375 C-0.07414577 4.37211942 -0.04128499 2.18619906 0 0 Z " fill="#86A7C4" transform="translate(546,74)"/>
<path d="M0 0 C1.65322266 0.01740234 1.65322266 0.01740234 3.33984375 0.03515625 C4.99693359 0.04869141 4.99693359 0.04869141 6.6875 0.0625 C7.54214844 0.07410156 8.39679688 0.08570312 9.27734375 0.09765625 C9.27734375 1.08765625 9.27734375 2.07765625 9.27734375 3.09765625 C12.57734375 3.09765625 15.87734375 3.09765625 19.27734375 3.09765625 C19.60734375 2.10765625 19.93734375 1.11765625 20.27734375 0.09765625 C20.93734375 0.42765625 21.59734375 0.75765625 22.27734375 1.09765625 C21.94734375 2.08765625 21.61734375 3.07765625 21.27734375 4.09765625 C16.98734375 4.09765625 12.69734375 4.09765625 8.27734375 4.09765625 C7.94734375 3.10765625 7.61734375 2.11765625 7.27734375 1.09765625 C4.63734375 1.09765625 1.99734375 1.09765625 -0.72265625 1.09765625 C-0.39265625 3.73765625 -0.06265625 6.37765625 0.27734375 9.09765625 C-1.04265625 9.09765625 -2.36265625 9.09765625 -3.72265625 9.09765625 C-3.8203125 2.9453125 -3.8203125 2.9453125 -3.72265625 1.09765625 C-2.72265625 0.09765625 -2.72265625 0.09765625 0 0 Z " fill="#C7C7C7" transform="translate(442.72265625,117.90234375)"/>
<path d="M0 0 C1.21236328 0.01353516 1.21236328 0.01353516 2.44921875 0.02734375 C3.37154297 0.04474609 3.37154297 0.04474609 4.3125 0.0625 C4.3125 0.3925 4.3125 0.7225 4.3125 1.0625 C1.6725 1.0625 -0.9675 1.0625 -3.6875 1.0625 C-3.6875 3.3725 -3.6875 5.6825 -3.6875 8.0625 C-2.6975 8.0625 -1.7075 8.0625 -0.6875 8.0625 C-0.6875 6.7425 -0.6875 5.4225 -0.6875 4.0625 C0.9625 4.0625 2.6125 4.0625 4.3125 4.0625 C3.3225 4.3925 2.3325 4.7225 1.3125 5.0625 C0.57926204 7.07758358 0.57926204 7.07758358 0.3125 9.0625 C-2.3275 9.0625 -4.9675 9.0625 -7.6875 9.0625 C-7.6875 6.4225 -7.6875 3.7825 -7.6875 1.0625 C-4.80538698 0.10179566 -2.98899956 -0.04331883 0 0 Z " fill="#888888" transform="translate(31.6875,117.9375)"/>
<path d="M0 0 C0.33 0 0.66 0 1 0 C1.02505615 0.55461914 1.0501123 1.10923828 1.07592773 1.68066406 C1.19227927 4.20398843 1.31482754 6.72697536 1.4375 9.25 C1.47681641 10.12269531 1.51613281 10.99539062 1.55664062 11.89453125 C1.59853516 12.73886719 1.64042969 13.58320312 1.68359375 14.453125 C1.72025146 15.22817383 1.75690918 16.00322266 1.79467773 16.80175781 C1.99603015 18.9574976 2.41729297 20.91801475 3 23 C4.98 23 6.96 23 9 23 C9 23.66 9 24.32 9 25 C10.423125 25.433125 10.423125 25.433125 11.875 25.875 C15 27 15 27 17 29 C16.01 29.33 15.02 29.66 14 30 C14 29.34 14 28.68 14 28 C12.68 28 11.36 28 10 28 C10 27.34 10 26.68 10 26 C8.68 26 7.36 26 6 26 C6 25.34 6 24.68 6 24 C4.68 24 3.36 24 2 24 C-0.16926659 20.74610012 -0.24080049 19.86604043 -0.1953125 16.11328125 C-0.18886719 15.17548828 -0.18242188 14.23769531 -0.17578125 13.27148438 C-0.15902344 12.29501953 -0.14226563 11.31855469 -0.125 10.3125 C-0.11597656 9.32443359 -0.10695313 8.33636719 -0.09765625 7.31835938 C-0.0740843 4.87866235 -0.04118022 2.43945303 0 0 Z " fill="#C0D2DF" transform="translate(545,74)"/>
<path d="M0 0 C0 2.97 0 5.94 0 9 C-2.97 9 -5.94 9 -9 9 C-9 8.67 -9 8.34 -9 8 C-7.02 8 -5.04 8 -3 8 C-3 5.69 -3 3.38 -3 1 C-3.99 1 -4.98 1 -6 1 C-6 2.32 -6 3.64 -6 5 C-8.64 5 -11.28 5 -14 5 C-14 4.67 -14 4.34 -14 4 C-12.35 4 -10.7 4 -9 4 C-9 3.01 -9 2.02 -9 1 C-6.04335481 -0.4783226 -3.25770263 -0.06032783 0 0 Z " fill="#8D8D8D" transform="translate(200,118)"/>
<path d="M0 0 C0.88042969 -0.00257812 1.76085937 -0.00515625 2.66796875 -0.0078125 C4.03501953 0.00378906 4.03501953 0.00378906 5.4296875 0.015625 C6.34878906 0.00789063 7.26789063 0.00015625 8.21484375 -0.0078125 C9.53162109 -0.00394531 9.53162109 -0.00394531 10.875 0 C11.67695801 0.00225586 12.47891602 0.00451172 13.30517578 0.00683594 C15.3046875 0.265625 15.3046875 0.265625 17.3046875 2.265625 C12.73368793 3.15580421 8.39622312 3.4000176 3.7421875 3.390625 C2.46214844 3.39320312 1.18210937 3.39578125 -0.13671875 3.3984375 C-3.13839094 3.28641022 -5.78617439 2.96917855 -8.6953125 2.265625 C-5.67150114 0.5231483 -3.47797244 0.00975588 0 0 Z " fill="#606060" transform="translate(312.6953125,117.734375)"/>
<path d="M0 0 C1.0528418 0.01353516 1.0528418 0.01353516 2.12695312 0.02734375 C3.85561525 0.05086296 5.58410145 0.08673287 7.3125 0.125 C6.9825 0.785 6.6525 1.445 6.3125 2.125 C4.45703125 2.65234375 4.45703125 2.65234375 2.125 3.0625 C-1.86798994 3.85982227 -5.11763627 5.11123071 -8.6875 7.125 C-9.3475 5.475 -10.0075 3.825 -10.6875 2.125 C-7.00662647 -0.32891569 -4.24394412 -0.10302759 0 0 Z " fill="#F78C0B" transform="translate(317.6875,57.875)"/>
<path d="M0 0 C2.31 0.33 4.62 0.66 7 1 C7 1.66 7 2.32 7 3 C7.99 3 8.98 3 10 3 C10 3.66 10 4.32 10 5 C13.96 5 17.92 5 22 5 C21.67 5.99 21.34 6.98 21 8 C21.33 8.66 21.66 9.32 22 10 C14.18294324 8.99134752 6.93088114 4.52844858 0 1 C0 0.67 0 0.34 0 0 Z " fill="#F7A744" transform="translate(140,76)"/>
<path d="M0 0 C4.68520915 1.21815438 8.70543612 2.69559987 13 5 C9.36576791 7.32590854 6.22911669 7.16265833 2 7 C2 6.01 2 5.02 2 4 C1.01 3.67 0.02 3.34 -1 3 C-0.67 2.01 -0.34 1.02 0 0 Z " fill="#FA8A0C" transform="translate(176,65)"/>
<path d="M0 0 C1.32 0 2.64 0 4 0 C4 3.96 4 7.92 4 12 C2.35 12 0.7 12 -1 12 C-0.67 8.04 -0.34 4.08 0 0 Z " fill="#BD8238" transform="translate(396,62)"/>
<path d="M0 0 C0.99 0 1.98 0 3 0 C3 2.31 3 4.62 3 7 C-2.98993047 7.3152595 -6.63560356 6.68219822 -12 4 C-7.91556885 2.46833832 -4.20544343 3.36918348 0 4 C0 2.68 0 1.36 0 0 Z " fill="#212121" transform="translate(194,119)"/>
<path d="M0 0 C0.66 0 1.32 0 2 0 C2.33 2.64 2.66 5.28 3 8 C9.93 8.33 16.86 8.66 24 9 C24 8.34 24 7.68 24 7 C24.66 7 25.32 7 26 7 C26 7.99 26 8.98 26 10 C21.85418113 10.02886751 17.70838784 10.04675327 13.5625 10.0625 C11.78649414 10.07506836 11.78649414 10.07506836 9.97460938 10.08789062 C8.84990234 10.09111328 7.72519531 10.09433594 6.56640625 10.09765625 C5.00321655 10.10551147 5.00321655 10.10551147 3.40844727 10.11352539 C1 10 1 10 0 9 C-0.07179964 7.48071962 -0.08392007 5.95832518 -0.0625 4.4375 C-0.05347656 3.61121094 -0.04445313 2.78492187 -0.03515625 1.93359375 C-0.02355469 1.29550781 -0.01195313 0.65742187 0 0 Z " fill="#CFCFCF" transform="translate(104,118)"/>
<path d="M0 0 C1.65 0 3.3 0 5 0 C5 0.99 5 1.98 5 3 C8.63 3 12.26 3 16 3 C16 3.33 16 3.66 16 4 C14.93458984 4.07347656 14.93458984 4.07347656 13.84765625 4.1484375 C12.92855469 4.22320312 12.00945312 4.29796875 11.0625 4.375 C10.14597656 4.44460937 9.22945312 4.51421875 8.28515625 4.5859375 C7.53105469 4.72257812 6.77695313 4.85921875 6 5 C5.67 5.66 5.34 6.32 5 7 C3.35 7 1.7 7 0 7 C0 4.69 0 2.38 0 0 Z " fill="#242424" transform="translate(108,119)"/>
<path d="M0 0 C0.85305168 2.90669462 1.07289715 5.31048873 0.87890625 8.328125 C0.83056641 9.12734375 0.78222656 9.9265625 0.73242188 10.75 C0.67634766 11.575 0.62027344 12.4 0.5625 13.25 C0.51029297 14.09046875 0.45808594 14.9309375 0.40429688 15.796875 C0.27504311 17.8649352 0.13825726 19.9325222 0 22 C-0.66 22 -1.32 22 -2 22 C-2.05807043 18.89591193 -2.09361914 15.7919636 -2.125 12.6875 C-2.14175781 11.80642578 -2.15851562 10.92535156 -2.17578125 10.01757812 C-2.18222656 9.17001953 -2.18867187 8.32246094 -2.1953125 7.44921875 C-2.20578613 6.66893311 -2.21625977 5.88864746 -2.22705078 5.0847168 C-2 3 -2 3 0 0 Z " fill="#97B1CC" transform="translate(548,40)"/>
<path d="M0 0 C1.45922693 0.11409593 2.91740598 0.24165544 4.375 0.375 C5.59316406 0.47941406 5.59316406 0.47941406 6.8359375 0.5859375 C9 1 9 1 11 3 C8.69 3 6.38 3 4 3 C4 4.32 4 5.64 4 7 C2.68 7 1.36 7 0 7 C0 4.69 0 2.38 0 0 Z " fill="#212121" transform="translate(170,119)"/>
<path d="M0 0 C0 0.33 0 0.66 0 1 C-0.89924194 1.12060791 -0.89924194 1.12060791 -1.81665039 1.24365234 C-4.56601347 1.61546743 -7.31423278 1.99517304 -10.0625 2.375 C-11.00544922 2.50132813 -11.94839844 2.62765625 -12.91992188 2.7578125 C-18.10996155 3.48116298 -23.00581892 4.40684931 -28 6 C-27.67 5.34 -27.34 4.68 -27 4 C-26.34 4 -25.68 4 -25 4 C-25 3.34 -25 2.68 -25 2 C-22.33397504 1.66068773 -19.66736986 1.32842824 -17 1 C-15.88431641 0.85691406 -15.88431641 0.85691406 -14.74609375 0.7109375 C-9.79111949 0.10772324 -4.99157504 -0.09075591 0 0 Z " fill="#F8D6A8" transform="translate(58,29)"/>
<path d="M0 0 C1.98 0 3.96 0 6 0 C6.33 1.65 6.66 3.3 7 5 C3.32589215 6.17571451 -0.16929183 6.07366746 -4 6 C-3.34 5.38125 -2.68 4.7625 -2 4.125 C0.2284549 2.24362573 0.2284549 2.24362573 0 0 Z " fill="#292929" transform="translate(328,120)"/>
<path d="M0 0 C0 2.31 0 4.62 0 7 C-0.99 7 -1.98 7 -3 7 C-3 5.68 -3 4.36 -3 3 C-5.64 3 -8.28 3 -11 3 C-8.21756596 -1.17365106 -4.53441502 -0.22300402 0 0 Z " fill="#1B1B1B" transform="translate(64,119)"/>
<path d="M0 0 C4.95 0 9.9 0 15 0 C14.67 2.31 14.34 4.62 14 7 C12.68 7 11.36 7 10 7 C10 5.02 10 3.04 10 1 C6.7 1 3.4 1 0 1 C0 0.67 0 0.34 0 0 Z " fill="#1F1F1F" transform="translate(239,119)"/>
<path d="M0 0 C1 1 1 1 1.0625 4.0625 C1.041875 5.031875 1.02125 6.00125 1 7 C0.34 7 -0.32 7 -1 7 C-1 5.02 -1 3.04 -1 1 C-2.65 1 -4.3 1 -6 1 C-6 2.98 -6 4.96 -6 7 C-7.32 6.67 -8.64 6.34 -10 6 C-9.625 3.5625 -9.625 3.5625 -9 1 C-6.01787087 -0.49106457 -3.28390342 -0.11941467 0 0 Z " fill="#929292" transform="translate(543,118)"/>
<path d="M0 0 C1.65 0 3.3 0 5 0 C4 3 4 3 1.34765625 4.60546875 C0.26355469 5.12753906 -0.82054687 5.64960937 -1.9375 6.1875 C-3.01902344 6.71730469 -4.10054688 7.24710938 -5.21484375 7.79296875 C-8 9 -8 9 -10 9 C-10 8.01 -10 7.02 -10 6 C-8.02 6 -6.04 6 -4 6 C-4 5.34 -4 4.68 -4 4 C-2.68 3.34 -1.36 2.68 0 2 C0 1.34 0 0.68 0 0 Z " fill="#F9EED6" transform="translate(282,44)"/>
<path d="M0 0 C1.32 0.33 2.64 0.66 4 1 C3.34 2.98 2.68 4.96 2 7 C2.66 7.33 3.32 7.66 4 8 C1.03 8 -1.94 8 -5 8 C-4.34 7.34 -3.68 6.68 -3 6 C-3.33 5.34 -3.66 4.68 -4 4 C-2.68 3.67 -1.36 3.34 0 3 C0 2.01 0 1.02 0 0 Z " fill="#B4B4B4" transform="translate(400,119)"/>
<path d="M0 0 C1.23556641 0.01740234 1.23556641 0.01740234 2.49609375 0.03515625 C3.32238281 0.04417969 4.14867187 0.05320313 5 0.0625 C5.63808594 0.07410156 6.27617188 0.08570313 6.93359375 0.09765625 C3.19245342 3.35082175 -1.37955763 5.54140536 -6.06640625 7.09765625 C-6.72640625 6.76765625 -7.38640625 6.43765625 -8.06640625 6.09765625 C-2.06640625 0.09765625 -2.06640625 0.09765625 0 0 Z " fill="#CBDFE7" transform="translate(557.06640625,32.90234375)"/>
<path d="M0 0 C0.33 0.66 0.66 1.32 1 2 C1.87011719 1.94779297 1.87011719 1.94779297 2.7578125 1.89453125 C8.009134 1.71255476 11.39511219 2.16622289 16 5 C16 5.33 16 5.66 16 6 C14.33388095 6.042721 12.66617115 6.04063832 11 6 C10.67 5.67 10.34 5.34 10 5 C8.48530552 4.76807135 6.96245438 4.58784762 5.4375 4.4375 C4.61121094 4.35371094 3.78492188 4.26992187 2.93359375 4.18359375 C2.29550781 4.12300781 1.65742188 4.06242187 1 4 C0.67 4.66 0.34 5.32 0 6 C0 4.02 0 2.04 0 0 Z " fill="#2C2C2C" transform="translate(382,120)"/>
<path d="M0 0 C1.65 0 3.3 0 5 0 C5 2.31 5 4.62 5 7 C3.35 7 1.7 7 0 7 C0 4.69 0 2.38 0 0 Z " fill="#050505" transform="translate(466,119)"/>
<path d="M0 0 C0.66 0.33 1.32 0.66 2 1 C1.0925 1.598125 0.185 2.19625 -0.75 2.8125 C-3.86288422 4.81027581 -3.86288422 4.81027581 -5.9375 6.6875 C-8.83661223 8.5323896 -11.62354571 8.67534093 -15 9 C-13.40080912 5.80161823 -10.15276098 4.84078566 -7.0625 3.3125 C-6.41603516 2.97927734 -5.76957031 2.64605469 -5.10351562 2.30273438 C-3.43387888 1.4687829 -1.71885121 0.72712615 0 0 Z " fill="#F9D8AE" transform="translate(285,75)"/>
<path d="M0 0 C2.625 -0.1875 2.625 -0.1875 5 0 C2.71646178 3.04471763 1.38539798 4.72918715 -2.41796875 5.47265625 C-6.69754582 5.61804809 -9.15144548 5.64651773 -12.625 3 C-13.07875 2.34 -13.5325 1.68 -14 1 C-12.68 1 -11.36 1 -10 1 C-9.67 1.66 -9.34 2.32 -9 3 C-5.58357241 3.25015873 -5.58357241 3.25015873 -2 3 C-1.34 2.01 -0.68 1.02 0 0 Z " fill="#F9E3C5" transform="translate(216,75)"/>
<path d="M0 0 C2.475 0.99 2.475 0.99 5 2 C0.26275446 4.45634954 -3.56500474 6.31057116 -9 6 C-8.67 5.01 -8.34 4.02 -8 3 C-5.36 2.67 -2.72 2.34 0 2 C0 1.34 0 0.68 0 0 Z " fill="#555555" transform="translate(52,120)"/>
<path d="M0 0 C1.32 0.33 2.64 0.66 4 1 C3.01 1 2.02 1 1 1 C1 1.66 1 2.32 1 3 C0.34 3.66 -0.32 4.32 -1 5 C-1 5.33 -1 5.66 -1 6 C-5.29 6 -9.58 6 -14 6 C-14 5.67 -14 5.34 -14 5 C-12.72125 4.87625 -11.4425 4.7525 -10.125 4.625 C-6.65209064 4.30957601 -6.65209064 4.30957601 -4 2 C-2.68 2 -1.36 2 0 2 C0 1.34 0 0.68 0 0 Z " fill="#F9A647" transform="translate(222,75)"/>
<path d="M0 0 C-0.66 0 -1.32 0 -2 0 C-2 0.66 -2 1.32 -2 2 C-3.24420647 2.5345256 -4.49570936 3.05208611 -5.75 3.5625 C-6.44609375 3.85253906 -7.1421875 4.14257812 -7.859375 4.44140625 C-10.30012784 5.07831803 -11.6403655 4.80248831 -14 4 C-13.34 4 -12.68 4 -12 4 C-12 3.34 -12 2.68 -12 2 C-10.75579353 1.4654744 -9.50429064 0.94791389 -8.25 0.4375 C-7.55390625 0.14746094 -6.8578125 -0.14257812 -6.140625 -0.44140625 C-3.69987216 -1.07831803 -2.3596345 -0.80248831 0 0 Z " fill="#F6B669" transform="translate(298,43)"/>
<path d="M0 0 C1.98 0 3.96 0 6 0 C6.33 0.66 6.66 1.32 7 2 C6.01 2.33 5.02 2.66 4 3 C3.26676204 5.01508358 3.26676204 5.01508358 3 7 C2.01 7 1.02 7 0 7 C0 4.69 0 2.38 0 0 Z " fill="#171717" transform="translate(28,119)"/>
<path d="M0 0 C1.32 0.33 2.64 0.66 4 1 C4 3.64 4 6.28 4 9 C2.68 9 1.36 9 0 9 C0 6.03 0 3.06 0 0 Z " fill="#BBBBBB" transform="translate(581,118)"/>
<path d="M0 0 C1.32 0 2.64 0 4 0 C4.93423645 3.01031744 5.04449911 3.86650268 4 7 C2.68 7 1.36 7 0 7 C0 4.69 0 2.38 0 0 Z " fill="#212121" transform="translate(444,119)"/>
<path d="M0 0 C0.66 0.33 1.32 0.66 2 1 C0.38380344 3.6417565 -0.49427342 4.831159 -3.48046875 5.828125 C-4.37378906 5.96734375 -5.26710938 6.1065625 -6.1875 6.25 C-7.08855469 6.39953125 -7.98960937 6.5490625 -8.91796875 6.703125 C-9.94857422 6.85007812 -9.94857422 6.85007812 -11 7 C-8.84658594 4.65082102 -6.78332063 3.17556996 -3.9375 1.75 C-3.24527344 1.39421875 -2.55304688 1.0384375 -1.83984375 0.671875 C-1.23269531 0.45015625 -0.62554687 0.2284375 0 0 Z " fill="#F9D6A4" transform="translate(318,60)"/>
<path d="M0 0 C1.32 0 2.64 0 4 0 C4 0.66 4 1.32 4 2 C8.455 1.505 8.455 1.505 13 1 C12.01 1.495 12.01 1.495 11 2 C11.33 3.32 11.66 4.64 12 6 C8.7 5.01 5.4 4.02 2 3 C2 2.34 2 1.68 2 1 C1.34 0.67 0.68 0.34 0 0 Z " fill="#F9DDB7" transform="translate(110,34)"/>
<path d="M0 0 C-2.84502097 1.89668064 -5.57299885 3.23263478 -8.6875 4.625 C-9.68136719 5.07101563 -10.67523438 5.51703125 -11.69921875 5.9765625 C-12.45847656 6.31429687 -13.21773438 6.65203125 -14 7 C-14 5.35 -14 3.7 -14 2 C-11.03 2.495 -11.03 2.495 -8 3 C-8 2.34 -8 1.68 -8 1 C-5.07175348 0.02391783 -3.04386724 -0.08226668 0 0 Z " fill="#F7921E" transform="translate(288,74)"/>
<path d="M0 0 C1.32 0.33 2.64 0.66 4 1 C3.67 1.66 3.34 2.32 3 3 C3.99 3.33 4.98 3.66 6 4 C3.8614515 6.1385485 2.86724686 6.42655063 0 7 C0 4.69 0 2.38 0 0 Z " fill="#181818" transform="translate(586,119)"/>
<path d="M0 0 C-5.75 3 -5.75 3 -8 3 C-8 3.66 -8 4.32 -8 5 C-9.32 4.67 -10.64 4.34 -12 4 C-12 3.01 -12 2.02 -12 1 C-10.37681021 0.63762737 -8.7513642 0.28534843 -7.125 -0.0625 C-6.22007812 -0.25972656 -5.31515625 -0.45695312 -4.3828125 -0.66015625 C-2 -1 -2 -1 0 0 Z " fill="#F7DDB8" transform="translate(320,32)"/>
<path d="M0 0 C3.3 0.99 6.6 1.98 10 3 C10 3.66 10 4.32 10 5 C10.66 5.33 11.32 5.66 12 6 C10.02 6.33 8.04 6.66 6 7 C5.7525 6.195625 5.505 5.39125 5.25 4.5625 C4.27761141 1.828919 4.27761141 1.828919 1.875 1.1875 C1.25625 1.125625 0.6375 1.06375 0 1 C0 0.67 0 0.34 0 0 Z " fill="#F8A339" transform="translate(192,72)"/>
<path d="M0 0 C4.9723422 1.49170266 9.41845739 3.60457417 14 6 C10.86650268 7.04449911 10.01031744 6.93423645 7 6 C7 5.34 7 4.68 7 4 C5.68 4 4.36 4 3 4 C3 3.34 3 2.68 3 2 C2.01 2 1.02 2 0 2 C0 1.34 0 0.68 0 0 Z " fill="#F9E2C8" transform="translate(96,57)"/>
<path d="M0 0 C5.09448798 0.43173627 8.84512277 0.75400216 13 4 C13 4.66 13 5.32 13 6 C11.39253944 5.57476184 9.78910164 5.13429874 8.1875 4.6875 C7.29417969 4.44386719 6.40085938 4.20023438 5.48046875 3.94921875 C2.94752262 2.9799181 1.7283504 2.04990396 0 0 Z " fill="#F9CF9C" transform="translate(122,40)"/>
<path d="M0 0 C2.25056722 0.11433363 4.50046674 0.24186436 6.75 0.375 C8.62945313 0.47941406 8.62945313 0.47941406 10.546875 0.5859375 C13.60998121 0.95323304 15.41974266 1.39711286 18 3 C15.37438891 3.08074203 12.75124324 3.1403623 10.125 3.1875 C9.00544922 3.22520508 9.00544922 3.22520508 7.86328125 3.26367188 C5.6953125 3.29296875 5.6953125 3.29296875 2 3 C1.34 2.01 0.68 1.02 0 0 Z " fill="#CCDEEB" transform="translate(566,104)"/>
<path d="M0 0 C0.66 0.33 1.32 0.66 2 1 C-0.17220355 3.73277221 -1.85827965 5.72888915 -5.3359375 6.5546875 C-7.56274452 6.78650022 -9.76217118 6.94637012 -12 7 C-9.62905601 5.41937067 -7.4213606 4.17309564 -4.875 2.9375 C-2.24526174 1.74120952 -2.24526174 1.74120952 0 0 Z " fill="#F9E0B9" transform="translate(86,96)"/>
<path d="M0 0 C4.29 0 8.58 0 13 0 C12.67 0.66 12.34 1.32 12 2 C10.0390625 2.6328125 10.0390625 2.6328125 7.625 3.125 C6.43777344 3.37636719 6.43777344 3.37636719 5.2265625 3.6328125 C3 4 3 4 0 4 C0 2.66666667 0 1.33333333 0 0 Z " fill="#FA9828" transform="translate(312,58)"/>
<path d="M0 0 C0.79921875 0.01804687 1.5984375 0.03609375 2.421875 0.0546875 C3.02515625 0.07789062 3.6284375 0.10109375 4.25 0.125 C4.25 0.785 4.25 1.445 4.25 2.125 C-0.40537393 2.96296731 -4.12078475 3.1411692 -8.75 2.125 C-5.68753253 0.34090198 -3.52920727 -0.10380021 0 0 Z " fill="#FCF7E9" transform="translate(40.75,107.875)"/>
<path d="M0 0 C-2.64738916 1.4606285 -3.89448334 2 -7 2 C-7 2.99 -7 3.98 -7 5 C-8.32 5 -9.64 5 -11 5 C-11.33 5.99 -11.66 6.98 -12 8 C-12.0625 5.75 -12.0625 5.75 -11 3 C-3.47058824 -1.73529412 -3.47058824 -1.73529412 0 0 Z " fill="#2E70A6" transform="translate(562,36)"/>
<path d="M0 0 C5.75 1.75 5.75 1.75 8 4 C4.77208445 6.1519437 3.71599191 6.20086443 0 6 C0.66 4.68 1.32 3.36 2 2 C1.34 2 0.68 2 0 2 C0 1.34 0 0.68 0 0 Z " fill="#FA9A29" transform="translate(104,32)"/>
<path d="M0 0 C1.60597325 0.45196245 3.20972508 0.91182327 4.8125 1.375 C6.15248047 1.75785156 6.15248047 1.75785156 7.51953125 2.1484375 C10 3 10 3 13 5 C6.25 5.125 6.25 5.125 4 4 C4 3.34 4 2.68 4 2 C2.68 1.67 1.36 1.34 0 1 C0 0.67 0 0.34 0 0 Z " fill="#F9DDB3" transform="translate(173,92)"/>
<path d="M0 0 C-0.33 1.32 -0.66 2.64 -1 4 C-4.3 4.66 -7.6 5.32 -11 6 C-9.73083275 3.46166551 -8.58375191 3.10599099 -6.0625 1.875 C-5.35222656 1.52179687 -4.64195312 1.16859375 -3.91015625 0.8046875 C-2 0 -2 0 0 0 Z " fill="#F7982B" transform="translate(269,55)"/>
<path d="M0 0 C2.97 0.495 2.97 0.495 6 1 C6 1.99 6 2.98 6 4 C4.35 4.33 2.7 4.66 1 5 C0.67 3.35 0.34 1.7 0 0 Z " fill="#C1C1C1" transform="translate(334,120)"/>
<path d="M0 0 C2.66355234 -0.39169887 4.39224373 -0.40564529 6.66796875 1.11328125 C8.1510888 2.36389317 9.57954352 3.67864514 11 5 C10.01 5.495 10.01 5.495 9 6 C8.01 5.67 7.02 5.34 6 5 C6 4.34 6 3.68 6 3 C5.38125 2.87625 4.7625 2.7525 4.125 2.625 C2 2 2 2 0 0 Z " fill="#F7B767" transform="translate(162,86)"/>
<path d="M0 0 C3.86648272 1.04097612 7.49461443 2.03698408 11 4 C8.3333581 5.33332095 6.83319697 4.67102033 4 4 C4 3.34 4 2.68 4 2 C2.68 2.33 1.36 2.66 0 3 C0 2.01 0 1.02 0 0 Z " fill="#F6A444" transform="translate(176,65)"/>
<path d="M0 0 C0.66 0 1.32 0 2 0 C2.33 2.64 2.66 5.28 3 8 C2.01 8.33 1.02 8.66 0 9 C0 6.03 0 3.06 0 0 Z " fill="#E4E4E4" transform="translate(200,118)"/>
<path d="M0 0 C1.32 0.33 2.64 0.66 4 1 C4 2.65 4 4.3 4 6 C2.68 6 1.36 6 0 6 C0 4.02 0 2.04 0 0 Z " fill="#025EA0" transform="translate(402,67)"/>
<path d="M0 0 C7.38461538 -0.36923077 7.38461538 -0.36923077 10.5 1.5 C10.995 1.995 11.49 2.49 12 3 C10.56163249 2.88541307 9.12429034 2.75790884 7.6875 2.625 C6.88699219 2.55539063 6.08648437 2.48578125 5.26171875 2.4140625 C3 2 3 2 0 0 Z " fill="#F8D4A7" transform="translate(384,32)"/>
<path d="M0 0 C2.97 0.495 2.97 0.495 6 1 C6 1.66 6 2.32 6 3 C7.32 3 8.64 3 10 3 C10 3.66 10 4.32 10 5 C6.64566891 4.05066101 3.30753495 3.10251165 0 2 C0 1.34 0 0.68 0 0 Z " fill="#F8D6A8" transform="translate(157,55)"/>
<path d="M0 0 C-3.84700632 2.08379509 -7.90054429 3.49686624 -12 5 C-11 2 -11 2 -9.2578125 1.015625 C-8.55398437 0.76296875 -7.85015625 0.5103125 -7.125 0.25 C-6.07699219 -0.14445312 -6.07699219 -0.14445312 -5.0078125 -0.546875 C-3 -1 -3 -1 0 0 Z " fill="#F6A547" transform="translate(40,33)"/>
<path d="M0 0 C0.33 0 0.66 0 1 0 C1 1.98 1 3.96 1 6 C1.99 6.33 2.98 6.66 4 7 C1.125 7.125 1.125 7.125 -2 7 C-2.66 6.34 -3.32 5.68 -4 5 C-3.01 5 -2.02 5 -1 5 C-0.67 3.35 -0.34 1.7 0 0 Z " fill="#1B1B1B" transform="translate(519,119)"/>
<path d="M0 0 C1.32 0 2.64 0 4 0 C4 0.66 4 1.32 4 2 C6.97 2.495 6.97 2.495 10 3 C6.67465243 4.10844919 4.37817425 3.84454356 1 3 C0.67 2.01 0.34 1.02 0 0 Z " fill="#F9CFA2" transform="translate(118,67)"/>
<path d="M0 0 C1.98 0 3.96 0 6 0 C5 2 5 2 1.9375 3.125 C0.968125 3.41375 -0.00125 3.7025 -1 4 C-0.67 2.68 -0.34 1.36 0 0 Z " fill="#F79B2E" transform="translate(302,65)"/>
</svg>
